<svg width="24" height="24" viewBox="0 0 24 24" fill="none" xmlns="http://www.w3.org/2000/svg">
<g clip-path="url(#clip0_1491_9917)">
<path fill-rule="evenodd" clip-rule="evenodd" d="M14.8828 4.063C15.7421 3.81623 16.6377 4.31634 16.8833 5.18003C16.9246 5.32534 16.9455 5.47572 16.9455 5.62684L16.9455 6.98894H18.5637C19.4574 6.98894 20.1819 7.71712 20.1819 8.61537V18.3739C20.1819 19.2722 19.4574 20.0003 18.5637 20.0003H5.61819C4.72449 20.0003 4 19.2722 4 18.3739H4.0217C4.00727 18.2863 4 18.1975 4 18.1085V8.415C4 7.68883 4.47895 7.05065 5.17364 6.85115L14.8828 4.063ZM10.5841 18.3739H18.5637V11.8681H16.9459V10.2417H18.5637V8.61537H16.9455L16.9455 15.3203C16.9455 16.0465 16.4666 16.6847 15.7719 16.8842L10.5841 18.3739ZM5.6184 8.41514V18.1086L15.3275 15.3205V5.62699L5.6184 8.41514ZM13.7089 10.2414C13.7089 10.6905 13.3467 11.0546 12.8998 11.0546C12.453 11.0546 12.0908 10.6905 12.0908 10.2414C12.0908 9.79228 12.453 9.42819 12.8998 9.42819C13.3467 9.42819 13.7089 9.79228 13.7089 10.2414Z" fill="#91D600"/>
</g>
<defs>
<clipPath id="clip0_1491_9917">
<rect width="24" height="24" fill="white"/>
</clipPath>
</defs>
</svg>
