<svg width="24" height="24" viewBox="0 0 24 24" fill="none" xmlns="http://www.w3.org/2000/svg">
<g clip-path="url(#clip0_1459_9822)">
<path fill-rule="evenodd" clip-rule="evenodd" d="M11.2953 2.01314C11.2199 2.0219 10.9909 2.04788 10.7863 2.07089C9.10204 2.26026 7.37094 2.9609 5.93989 4.03246C5.4734 4.38175 4.61306 5.2135 4.22777 5.68775C3.29927 6.83053 2.54635 8.36785 2.23491 9.75692C2.04338 10.6113 2 11.0266 2 12.0067C2 12.9868 2.04338 13.4021 2.23491 14.2565C2.54655 15.6463 3.30111 17.1866 4.22832 18.3257C4.59035 18.7704 5.30051 19.4745 5.74484 19.8292C6.8682 20.726 8.38749 21.4608 9.74882 21.7657C10.5675 21.9491 11.0562 22 12 22C13.6637 22 14.9393 21.7069 16.4045 20.9881C18.0371 20.1871 19.3398 19.0461 20.3598 17.5236C20.9582 16.6305 21.5318 15.2967 21.7651 14.2565C21.9566 13.4021 22 12.9868 22 12.0067C22 11.0266 21.9566 10.6113 21.7651 9.75692C21.4535 8.36711 20.6989 6.82677 19.7717 5.68775C19.4096 5.24304 18.6995 4.53892 18.2552 4.18423C16.894 3.09769 15.214 2.36594 13.4796 2.1043C12.9848 2.02965 11.6369 1.97338 11.2953 2.01314ZM12.6833 5.06204C13.7378 5.28526 14.611 6.00401 15.0442 7.00546C15.2277 7.42944 15.298 7.79883 15.2963 8.3288C15.2934 9.25309 14.9529 10.0398 14.2764 10.6858C13.913 11.0328 13.5287 11.2707 13.0842 11.4238C11.0684 12.1181 8.93205 10.754 8.71237 8.63223C8.53956 6.9627 9.65845 5.41931 11.2997 5.06349C11.6333 4.99114 12.345 4.9904 12.6833 5.06204ZM14.7601 13.3296C15.7753 13.6114 16.536 14.2494 16.9687 15.1821C17.3589 16.0231 17.3798 16.8394 17.0244 17.3583C16.7304 17.7874 15.6851 18.4833 14.7601 18.8657C13.109 19.5483 11.0215 19.5637 9.33777 18.9056C8.41764 18.5459 7.22165 17.7662 6.96255 17.3571C6.65729 16.8751 6.63889 16.2425 6.90739 15.4605C7.30187 14.3114 8.35931 13.4455 9.59221 13.2619C9.72141 13.2427 10.8666 13.2305 12.137 13.2348C14.3914 13.2424 14.4545 13.2447 14.7601 13.3296Z" fill="#00BCD6"/>
</g>
<defs>
<clipPath id="clip0_1459_9822">
<rect width="24" height="24" fill="white"/>
</clipPath>
</defs>
</svg>
