<svg width="24" height="24" viewBox="0 0 24 24" fill="none" xmlns="http://www.w3.org/2000/svg">
<g clip-path="url(#clip0_1491_9871)">
<path fill-rule="evenodd" clip-rule="evenodd" d="M11.322 3.01694C9.98808 3.14469 8.99595 3.42682 7.8727 3.99779C6.54212 4.67411 5.34813 5.74361 4.47753 7.03888C4.10891 7.58731 3.65846 8.51315 3.44217 9.16689C3.26759 9.69457 3.12892 10.2951 3.04416 10.8904C2.98528 11.3041 2.98528 12.6927 3.04416 13.1063C3.19164 14.1424 3.46565 15.0499 3.89375 15.9202C4.3781 16.9049 4.85252 17.5664 5.63576 18.3492C6.41044 19.1233 7.08271 19.6067 8.03109 20.0717C8.69283 20.3961 9.12009 20.554 9.79094 20.7221C11.5513 21.1634 13.3168 21.0788 15.0367 20.4707C15.558 20.2865 16.4681 19.8307 16.9359 19.5195C17.9878 18.8201 18.9534 17.8309 19.6425 16.7468C19.896 16.348 20.3034 15.5065 20.4696 15.0385C21.2965 12.7101 21.1525 10.2111 20.0659 8.02751C19.6273 7.1463 19.1391 6.45566 18.4536 5.74681C17.6934 4.96067 16.9478 4.41829 15.9504 3.92579C14.9079 3.41102 13.9364 3.13625 12.7827 3.02971C12.4241 2.99661 11.6089 2.98947 11.322 3.01694ZM12.3912 7.42667C12.4619 7.47454 12.5632 7.57567 12.6161 7.65136L12.7123 7.78899L12.7299 9.51557L12.7475 11.2421L14.4752 11.2597L16.2029 11.2773L16.3407 11.3735C16.4164 11.4263 16.518 11.5281 16.5664 11.5995C16.6412 11.71 16.6544 11.7696 16.6544 11.9984C16.6544 12.2272 16.6412 12.2867 16.5664 12.3972C16.518 12.4687 16.4164 12.5704 16.3407 12.6233L16.2029 12.7194L14.4752 12.737L12.7475 12.7546L12.7299 14.4812L12.7123 16.2078L12.6161 16.3454C12.5632 16.4211 12.4614 16.5226 12.3899 16.571C12.2793 16.6458 12.2197 16.6589 11.9908 16.6589C11.7618 16.6589 11.7022 16.6458 11.5917 16.571C11.5201 16.5226 11.4183 16.4211 11.3654 16.3454L11.2692 16.2078L11.2516 14.4812L11.234 12.7546L9.5063 12.737L7.77859 12.7194L7.64086 12.6233C7.42049 12.4694 7.33092 12.3076 7.31652 12.0374C7.30114 11.7489 7.39853 11.541 7.62323 11.3828L7.7731 11.2773L9.50356 11.2597L11.234 11.2421L11.2516 9.51282L11.2692 7.78351L11.3748 7.63374C11.5331 7.40919 11.7411 7.31186 12.0298 7.32723C12.2053 7.33655 12.294 7.361 12.3912 7.42667Z" fill="white"/>
</g>
<defs>
<clipPath id="clip0_1491_9871">
<rect width="24" height="24" fill="white"/>
</clipPath>
</defs>
</svg>
