<svg width="24" height="24" viewBox="0 0 24 24" fill="none" xmlns="http://www.w3.org/2000/svg">
<g clip-path="url(#clip0_1491_9888)">
<path d="M6.88462 4L6.44291 4.57468C6.44291 4.57468 6.13642 4.96916 5.82993 5.45617C5.67668 5.69967 5.51893 5.9724 5.39273 6.25C5.26653 6.52273 5.15385 6.79546 5.15385 7.15584C5.15385 7.96429 5.64062 8.65097 6.30769 8.90909V10.2727H5.73077C4.77975 10.2727 4 11.1153 4 12.1429V19H19V12.1429C19 11.1153 18.2203 10.2727 17.2692 10.2727H16.6923V8.90909C17.3594 8.65097 17.8462 7.96429 17.8462 7.15584C17.8462 6.79546 17.7335 6.52273 17.6073 6.25C17.4811 5.9724 17.3233 5.69967 17.1701 5.45617C16.8636 4.96916 16.5616 4.57468 16.5616 4.57468L16.1154 4L15.6692 4.57468C15.6692 4.57468 15.3672 4.96916 15.0607 5.45617C14.9075 5.69967 14.7497 5.9724 14.6235 6.25C14.4973 6.52273 14.3846 6.79546 14.3846 7.15584C14.3846 7.96429 14.8714 8.65097 15.5385 8.90909V10.2727H12.0769V8.90909C12.744 8.65097 13.2308 7.96429 13.2308 7.15584C13.2308 6.79546 13.1181 6.52273 12.9919 6.25C12.8657 5.9724 12.7079 5.69967 12.5547 5.45617C12.2482 4.96916 11.9417 4.57468 11.9417 4.57468L11.5 4L11.0583 4.57468C11.0583 4.57468 10.7518 4.96916 10.4453 5.45617C10.2921 5.69967 10.1343 5.9724 10.0081 6.25C9.88191 6.52273 9.76923 6.79546 9.76923 7.15584C9.76923 7.96429 10.256 8.65097 10.9231 8.90909V10.2727H7.46154V8.90909C8.12861 8.65097 8.61538 7.96429 8.61538 7.15584C8.61538 6.79546 8.5027 6.52273 8.3765 6.25C8.2503 5.9724 8.09255 5.69967 7.9393 5.45617C7.63281 4.96916 7.32632 4.57468 7.32632 4.57468L6.88462 4ZM6.88462 6.01623C6.93419 6.08442 6.93419 6.07955 6.98377 6.15747C7.11899 6.37175 7.2497 6.60552 7.33984 6.80033C7.42999 6.99513 7.46154 7.17045 7.46154 7.15584C7.46154 7.49188 7.22716 7.75 6.92067 7.76948C6.90715 7.76948 6.88912 7.76948 6.8756 7.76948C6.86659 7.76948 6.85757 7.76948 6.84856 7.76948C6.54207 7.75 6.30769 7.49188 6.30769 7.15584C6.30769 7.17045 6.33924 6.99513 6.42939 6.80033C6.51953 6.60552 6.65024 6.37175 6.78546 6.15747C6.83504 6.07955 6.83504 6.08442 6.88462 6.01623ZM11.5 6.01623C11.5496 6.08442 11.5496 6.07955 11.5992 6.15747C11.7344 6.37175 11.8651 6.60552 11.9552 6.80033C12.0454 6.99513 12.0769 7.17045 12.0769 7.15584C12.0769 7.49188 11.8425 7.75 11.5361 7.76948C11.5225 7.76948 11.5045 7.76948 11.491 7.76948C11.482 7.76948 11.473 7.76948 11.4639 7.76948C11.1575 7.75 10.9231 7.49188 10.9231 7.15584C10.9231 7.17045 10.9546 6.99513 11.0448 6.80033C11.1349 6.60552 11.2656 6.37175 11.4008 6.15747C11.4504 6.07955 11.4504 6.08442 11.5 6.01623ZM16.1154 6.01623C16.165 6.08442 16.165 6.07955 16.2145 6.15747C16.3498 6.37175 16.4805 6.60552 16.5706 6.80033C16.6608 6.99513 16.6923 7.17045 16.6923 7.15584C16.6923 7.49188 16.4579 7.75 16.1514 7.76948C16.1379 7.76948 16.1199 7.76948 16.1064 7.76948C16.0974 7.76948 16.0883 7.76948 16.0793 7.76948C15.7728 7.75 15.5385 7.49188 15.5385 7.15584C15.5385 7.17045 15.57 6.99513 15.6602 6.80033C15.7503 6.60552 15.881 6.37175 16.0162 6.15747C16.0658 6.07955 16.0658 6.08442 16.1154 6.01623ZM5.73077 11.5195H17.2692C17.5937 11.5195 17.8462 11.7922 17.8462 12.1429V13.1266C17.4495 13.5406 16.5751 14.013 16.1154 14.013C15.2635 14.013 14.7497 13.6623 14.2584 13L13.8077 12.3961L13.357 13C12.8657 13.6623 12.3519 14.013 11.5 14.013C10.6481 14.013 10.1343 13.6623 9.64303 13L9.19231 12.3961L8.74159 13C8.2503 13.6623 7.73648 14.013 6.88462 14.013C5.97416 14.013 5.40625 13.4968 5.15385 13.1656V12.1429C5.15385 11.7922 5.40625 11.5195 5.73077 11.5195ZM9.19231 14.1883C9.79627 14.7971 10.54 15.2597 11.5 15.2597C12.46 15.2597 13.2037 14.7971 13.8077 14.1883C14.4117 14.7971 15.1553 15.2597 16.1154 15.2597C16.7374 15.2597 17.3278 15.0114 17.8462 14.6753V17.7532H5.15385V14.7679C5.60907 15.0455 6.18149 15.2597 6.88462 15.2597C7.84465 15.2597 8.58834 14.7971 9.19231 14.1883Z" fill="#00BCD6"/>
</g>
<defs>
<clipPath id="clip0_1491_9888">
<rect width="24" height="24" fill="white"/>
</clipPath>
</defs>
</svg>
