<svg width="14" height="14" viewBox="0 0 14 14" fill="none" xmlns="http://www.w3.org/2000/svg">
<path d="M9.91536 12.25V11.0833C9.91536 10.4645 9.66953 9.871 9.23195 9.43342C8.79436 8.99583 8.20087 8.75 7.58203 8.75H2.91536C2.29653 8.75 1.70303 8.99583 1.26545 9.43342C0.827864 9.871 0.582031 10.4645 0.582031 11.0833V12.25M13.4154 12.25V11.0833C13.415 10.5663 13.2429 10.0641 12.9262 9.65552C12.6094 9.24692 12.1659 8.95508 11.6654 8.82583M9.33203 1.82583C9.83394 1.95434 10.2788 2.24624 10.5965 2.65552C10.9142 3.06479 11.0866 3.56815 11.0866 4.08625C11.0866 4.60435 10.9142 5.10772 10.5965 5.51699C10.2788 5.92626 9.83394 6.21816 9.33203 6.34667M7.58203 4.08333C7.58203 5.372 6.53736 6.41667 5.2487 6.41667C3.96003 6.41667 2.91536 5.372 2.91536 4.08333C2.91536 2.79467 3.96003 1.75 5.2487 1.75C6.53736 1.75 7.58203 2.79467 7.58203 4.08333Z" stroke="white" stroke-width="0.8" stroke-linecap="round" stroke-linejoin="round"/>
</svg>
