<svg width="24" height="24" viewBox="0 0 24 24" fill="none" xmlns="http://www.w3.org/2000/svg">
<g clip-path="url(#clip0_1491_9949)">
<path d="M5 3C5 5.46217 5.87453 7.31612 7.14947 8.73278C8.17147 9.86706 9.4352 10.7199 10.7092 11.5331C9.4408 12.3358 8.17706 13.1877 7.15506 14.3116C5.88013 15.7169 5 17.5596 5 20H6.4C6.4 17.8863 7.0944 16.4753 8.18267 15.2683C9.27654 14.0679 10.7913 13.1159 12.3668 12.1309C13.9413 11.1515 15.5765 10.1438 16.8505 8.73278C18.1199 7.31612 19 5.46217 19 3H7.8C7.8 3.52039 7.87093 3.97939 7.96987 4.41667H17.4796C17.3919 4.93139 17.2444 5.40172 17.0643 5.83333H8.52147C8.81734 6.34239 9.2056 6.80706 9.6704 7.25H16.2215C16.0852 7.42661 15.9648 7.60984 15.8117 7.77606C15.5327 8.08584 15.2209 8.38428 14.8877 8.66667H11.4745C11.9729 9.0095 12.5087 9.35328 13.0939 9.71784L13.2908 9.83967C12.8699 10.1277 12.4433 10.4101 12 10.6925C10.5617 9.78961 9.1888 8.88767 8.18267 7.77606C7.0944 6.5634 6.4 5.13633 6.4 3H5ZM14.4883 12.3746C14.0505 12.6617 13.6081 12.9337 13.1704 13.1991C13.176 13.2047 13.1863 13.2104 13.1975 13.2151L13.0939 13.2822C12.5087 13.6467 11.9729 13.9905 11.4745 14.3333H14.7347C15.2648 14.7649 15.7408 15.2353 16.1505 15.75H9.6704C9.2056 16.1929 8.81734 16.6576 8.52147 17.1667H17.0092C17.2005 17.6039 17.3592 18.0686 17.4581 18.5833H7.96987C7.87093 19.0206 7.8 19.4796 7.8 20H19C19 16.1929 16.9551 14.0736 14.4883 12.3746Z" fill="#00BCD6"/>
</g>
<defs>
<clipPath id="clip0_1491_9949">
<rect width="24" height="24" fill="white"/>
</clipPath>
</defs>
</svg>
